<?xml version="1.0" encoding="utf-8"?>
<!-- Generator: Adobe Illustrator 19.2.1, SVG Export Plug-In . SVG Version: 6.00 Build 0)  -->
<svg version="1.1" id="Слой_1" xmlns="http://www.w3.org/2000/svg" xmlns:xlink="http://www.w3.org/1999/xlink" x="0px" y="0px"
	 width="22.1px" height="17.7px" viewBox="0 0 22.1 17.7" style="enable-background:new 0 0 22.1 17.7;" xml:space="preserve">
<style type="text/css">
	.st0{fill-rule:evenodd;clip-rule:evenodd;fill:#175890;}
</style>
<g>
	<g>
		<path class="st0" d="M21.9,17.2l0.3-0.4l-8.3-5.3c0.7-1.1,1.1-2.5,1.1-3.9C15,3.4,11.6,0,7.5,0C3.4,0,0,3.4,0,7.5S3.4,15,7.5,15
			c2.3,0,4.3-1,5.7-2.6l8.2,5.3l0.3-0.4L13.5,12c0-0.1,0.1-0.1,0.1-0.2L21.9,17.2z M7.5,14.4c-3.8,0-6.9-3.1-6.9-6.9
			c0-3.8,3.1-6.9,6.9-6.9c3.8,0,6.9,3.1,6.9,6.9C14.4,11.3,11.3,14.4,7.5,14.4z"/>
	</g>
</g>
</svg>
