<?xml version="1.0" encoding="utf-8"?>
<svg version="1.1" id="Layer_1" xmlns="http://www.w3.org/2000/svg" xmlns:xlink="http://www.w3.org/1999/xlink" x="0px" y="0px"
	 viewBox="0 0 1000 1000" style="enable-background:new 0 0 1000 1000;" xml:space="preserve">
<style type="text/css">
	.st0{fill:#43BCFF;}
	.st1{fill:#007ED3;}
	.st2{fill:#F5F5F5;}
	.st3{fill:#FFFFFF;}
</style>
<g>
	<g>
		<polygon class="st0" points="425.3,615.1 375.7,631 357.1,582.2 305,582.8 304.3,570.7 301.7,530.8 251.8,516 263.9,465.4 
			220.5,436.5 247.1,391.6 214.1,351.3 252.7,316.2 233.2,267.9 280.3,245.9 275.9,193.9 327.5,186.7 338.5,135.8 390,144.2 
			415.5,98.8 462.2,121.9 500,86 537.8,121.9 584.5,98.8 610.1,144.2 661.5,135.8 672.5,186.7 724.1,193.9 719.7,245.9 766.9,267.9 
			747.3,316.2 785.9,351.3 753,391.6 779.5,436.5 736.2,465.4 748.3,516 698.3,530.8 695,582.8 642.9,582.2 624.4,631 574.8,615.1 
			542.8,656.1 500,626.3 457.3,656.1 		"/>
	</g>
	<g>
		<polygon class="st1" points="765,433.1 723.9,460.5 735.4,508.5 688,522.6 686.5,546.9 684.9,571.9 635.5,571.4 617.9,617.6 
			586.9,607.6 570.9,602.5 560.5,615.8 540.5,641.4 500,613.1 459.5,641.4 429.1,602.5 382.1,617.6 364.6,571.4 315.2,571.9 
			315,570.1 312,522.6 264.7,508.5 276.2,460.5 235.1,433.1 260.2,390.7 229,352.4 265.6,319.2 247.1,273.4 291.8,252.5 
			287.5,203.2 336.5,196.4 346.9,148.1 395.7,156 419.9,113 464.2,134.9 500,100.9 535.8,134.9 580.1,113 604.4,156 653.1,148.1 
			663.6,196.4 712.5,203.2 708.3,252.5 753,273.4 734.5,319.2 771,352.4 739.8,390.7 		"/>
	</g>
	<g>
		<path class="st2" d="M723.9,397l-16-2.6c2.5-15.6,2.5-31.4,0-46.7l16-2.7C726.8,362.2,726.8,379.6,723.9,397z"/>
	</g>
	<g>
		<g>
			<path class="st2" d="M501.6,594.6c-8,0-16.1-0.7-24.1-2l2.6-16c14.3,2.3,28.7,2.3,42.7,0l2.7,16
				C517.6,594,509.7,594.6,501.6,594.6z"/>
		</g>
		<g>
			<path class="st2" d="M535.7,591.4l-1.6-16.1c14.4-1.4,28.3-5.2,41.3-11l6.7,14.8C567.5,585.6,551.9,589.7,535.7,591.4z"/>
		</g>
		<g>
			<path class="st2" d="M591.6,575l-5.7-15.2c13.6-5.1,26-12.3,37-21.3l10.3,12.5C620.7,561.2,606.8,569.3,591.6,575z"/>
		</g>
		<g>
			<path class="st2" d="M641.3,544.8l-9.5-13.2c11.8-8.5,21.9-18.6,30.2-30.2l13.2,9.4C665.9,523.9,654.5,535.3,641.3,544.8z"/>
		</g>
		<g>
			<path class="st2" d="M681.5,502.8l-12.6-10.3c9.2-11.2,16.4-23.7,21.4-37l15.2,5.7C699.8,476.2,691.7,490.2,681.5,502.8z"/>
		</g>
		<g>
			<path class="st2" d="M709.4,451.8l-14.8-6.7c6-13.2,9.7-27.1,11.1-41.3l16.1,1.6C720.2,421.3,716.1,436.9,709.4,451.8z"/>
		</g>
		<g>
			<path class="st2" d="M705.7,338.7c-1.4-14.4-5.2-28.3-11-41.3l14.8-6.7c6.6,14.6,10.8,30.2,12.4,46.3L705.7,338.7z"/>
		</g>
		<g>
			<path class="st2" d="M690.4,287c-5.1-13.6-12.3-26-21.3-37l12.5-10.3c10.2,12.4,18.2,26.3,24,41.5L690.4,287z"/>
		</g>
		<g>
			<path class="st2" d="M662.2,241c-8.5-11.8-18.6-21.9-30.2-30.2l9.4-13.2c13,9.3,24.4,20.7,33.9,33.9L662.2,241z"/>
		</g>
		<g>
			<path class="st2" d="M623,203.9c-11.2-9.2-23.7-16.4-37-21.4l5.7-15.2c15,5.6,28.9,13.7,41.5,24L623,203.9z"/>
		</g>
		<g>
			<path class="st2" d="M575.6,178.2c-13.2-6-27.1-9.7-41.2-11.1l1.6-16.1c15.9,1.6,31.5,5.7,46.3,12.4L575.6,178.2z"/>
		</g>
		<g>
			<path class="st2" d="M523.1,165.7c-14.3-2.3-28.7-2.3-42.7,0l-2.7-16c15.8-2.6,31.9-2.6,48,0L523.1,165.7z"/>
		</g>
		<g>
			<path class="st2" d="M427.9,178.1l-6.7-14.8c14.6-6.6,30.1-10.8,46.3-12.4l1.6,16.1C454.8,168.5,440.9,172.3,427.9,178.1z"/>
		</g>
		<g>
			<path class="st2" d="M380.5,203.8l-10.3-12.5c12.4-10.2,26.3-18.2,41.5-24l5.7,15.2C403.9,187.6,391.5,194.8,380.5,203.8z"/>
		</g>
		<g>
			<path class="st2" d="M341.3,240.9l-13.2-9.4c9.3-13,20.7-24.4,33.9-33.9l9.5,13.2C359.7,219.1,349.6,229.3,341.3,240.9z"/>
		</g>
		<g>
			<path class="st2" d="M313,286.8l-15.2-5.7c5.6-15,13.7-28.9,24-41.5l12.6,10.3C325.2,261,318,273.5,313,286.8z"/>
		</g>
		<g>
			<path class="st2" d="M297.6,338.5l-16.1-1.6c1.6-15.9,5.7-31.5,12.4-46.3l14.8,6.7C302.7,310.5,299,324.3,297.6,338.5z"/>
		</g>
		<g>
			<path class="st2" d="M280.1,395.1c-2.6-15.8-2.6-31.9,0-48l16,2.6c-2.3,14.3-2.3,28.7,0,42.7L280.1,395.1z"/>
		</g>
		<g>
			<path class="st2" d="M293.9,451.6c-6.6-14.6-10.8-30.1-12.4-46.3l16.1-1.6c1.4,14.4,5.2,28.3,11,41.3L293.9,451.6z"/>
		</g>
		<g>
			<path class="st2" d="M321.8,502.6c-10.2-12.4-18.2-26.3-24-41.5l15.2-5.7c5.1,13.5,12.3,26,21.4,37L321.8,502.6z"/>
		</g>
		<g>
			<path class="st2" d="M361.9,544.7c-13-9.3-24.4-20.7-33.9-33.9l13.2-9.5c8.5,11.8,18.6,21.9,30.2,30.2L361.9,544.7z"/>
		</g>
		<g>
			<path class="st2" d="M411.6,575c-15-5.6-28.9-13.7-41.5-24l10.3-12.6c11.2,9.2,23.7,16.4,37,21.4L411.6,575z"/>
		</g>
		<g>
			<path class="st2" d="M467.4,591.3c-15.9-1.6-31.5-5.7-46.3-12.4l6.7-14.8c13.2,6,27.1,9.7,41.3,11.1L467.4,591.3z"/>
		</g>
	</g>
	<g>
		<polygon class="st0" points="785.5,770.9 669,737.3 607.7,842.7 572.9,756.2 602.7,648.5 633.8,658.4 651.4,612.2 700.7,612.8 
			702.3,587.7 		"/>
	</g>
	<g>
		<polygon class="st1" points="781.3,760.5 664.9,727 603.6,832.4 568.8,745.9 598.6,638.2 629.7,648.1 647.2,601.9 696.6,602.4 
			698.2,577.4 		"/>
	</g>
	<g>
		<polygon class="st0" points="550.9,652.1 483.8,914 379.5,833.1 243.5,859.2 305.6,608.1 355,607.6 372.5,653.8 419.6,638.7 
			449.9,677.6 490.4,649.4 531,677.6 		"/>
	</g>
	<g>
		<polygon class="st1" points="552.5,646 485.4,907.9 381.1,827 245.1,853.1 307.2,602.1 356.6,601.5 374.1,647.7 421.1,632.6 
			451.5,671.6 492,643.3 532.5,671.6 		"/>
	</g>
	<g>
		<g>
			<path class="st3" d="M397.1,347h-33.6v-84.3h33.6c13.1,0,28.7,4.6,28.7,21.7c0,9.3-5.6,15.5-13.8,18.2v0.2
				c9.6,1.7,17.3,8.6,17.3,19.6C429.3,340.8,413.2,347,397.1,347z M393.2,278.9h-10v17.4h11c7.6,0,12-3.2,12-9.2
				C406.2,281.4,401.8,278.9,393.2,278.9z M394.5,311.3h-11.3v19.3h11.4c6.4,0,14.3-1.8,14.3-10
				C408.9,313.5,403.2,311.3,394.5,311.3z"/>
		</g>
		<g>
			<path class="st3" d="M442.7,347v-84.3h56.7V280h-37v15.8h35v16.3h-35v17.5h39.2V347H442.7z"/>
		</g>
		<g>
			<path class="st3" d="M559.6,284.6c-3.5-4.4-9.8-7.3-15-7.3c-5.2,0-11.8,1.8-11.8,8.5c0,5.6,5,7.4,13,9.9
				c11.4,3.7,26.2,8.6,26.2,25.4c0,19.4-15.6,28.1-32.3,28.1c-12,0-24.2-4.4-31.6-12.1l13.3-13.6c4,5.1,11.6,8.9,18.2,8.9
				c6.2,0,11.7-2.4,11.7-9.2c0-6.4-6.4-8.5-17.5-12c-10.7-3.5-21.6-8.9-21.6-24.2c0-18.7,16.9-26.4,32.6-26.4
				c9.5,0,20.2,3.6,27.6,10.4L559.6,284.6z"/>
		</g>
		<g>
			<path class="st3" d="M620,280.1V347h-20.4v-66.9h-23.8v-17.4h68v17.4H620z"/>
		</g>
		<g>
			<path class="st3" d="M386.8,404.9h-8.3v25.9h-16.6v-68.7h25.2c15,0,26.9,5.4,26.9,21.2C414.1,399.2,401.1,404.9,386.8,404.9z
				 M385.8,375.5h-7.3v16.2h7c6.2,0,11.9-1.8,11.9-8.3C397.5,376.8,391.7,375.5,385.8,375.5z"/>
		</g>
		<g>
			<path class="st3" d="M460.8,430.8L446,403.6h-5.6v27.3H424v-68.7h26.2c13.2,0,26.3,5,26.3,20.8c0,9.2-5.4,15.8-14.3,18.5l18,29.4
				H460.8z M449.1,375.5h-8.8v16h7.9c5.3,0,12-1.4,12-8.4C460.2,376.8,454,375.5,449.1,375.5z"/>
		</g>
		<g>
			<path class="st3" d="M488.4,430.8v-68.7h16.7v68.7H488.4z"/>
		</g>
		<g>
			<path class="st3" d="M553,432.7c-21.2,0-37-14.8-37-36.3c0-22,16.3-36.1,37.3-36.1c9.6,0,20,3.5,25.7,10.1l-11.3,11.3
				c-3.1-4.3-8.6-6.3-13.9-6.3c-11.6,0-19.8,8.9-19.8,21.1c0,12.5,8.1,21.1,19.5,21.1c6.5,0,11.6-2.9,14.6-7l11.6,10.9
				C573.7,428.3,564.6,432.7,553,432.7z"/>
		</g>
		<g>
			<path class="st3" d="M586.8,430.8v-68.7H633v14.1h-30.2v12.9h28.5v13.3h-28.5v14.3h31.9v14.2H586.8z"/>
		</g>
		<g>
			<path class="st3" d="M377.6,484.7c-12,0-20.6-7.9-20.6-19.7c0-12,8.9-19.7,20.3-19.7c5.9,0,11.3,2,14.5,5l-5.7,6.5
				c-1.7-2-4.8-3.5-8.4-3.5c-6.4,0-11,5-11,11.7c0,6.9,4.1,11.8,11.4,11.8c2.1,0,4.1-0.3,5.7-1v-6.8h-7.1v-7.3H392v19.9
				C388.4,483.4,383.3,484.7,377.6,484.7z"/>
		</g>
		<g>
			<path class="st3" d="M415,484.8c-9.8,0-16-6.1-16-15.1v-23.3h9v22.6c0,4,2,7.7,7,7.7c5.1,0,7-3.7,7-7.7v-22.6h9.1v23.3
				C431.2,478.6,424.8,484.8,415,484.8z"/>
		</g>
		<g>
			<path class="st3" d="M458.6,483.8l-8.1-14.9h-3.1v14.9h-8.9v-37.5h14.3c7.2,0,14.3,2.8,14.3,11.3c0,5-3,8.6-7.8,10.1l9.8,16
				H458.6z M452.2,453.6h-4.8v8.7h4.3c2.9,0,6.6-0.7,6.6-4.6C458.2,454.3,454.9,453.6,452.2,453.6z"/>
		</g>
		<g>
			<path class="st3" d="M499,483.8l-2.9-7.4h-14.5l-2.8,7.4H469l15.7-37.5h8.8l15.6,37.5H499z M488.9,456.3l-4.8,12.9h9.4
				L488.9,456.3z"/>
		</g>
		<g>
			<path class="st3" d="M536,483.8l-15.1-24.5h-0.2l0.2,24.5h-8.8v-37.5h10.3l15,24.5h0.2l-0.2-24.5h8.8v37.5H536z"/>
		</g>
		<g>
			<path class="st3" d="M570,454v29.8H561V454h-10.6v-7.7h30.2v7.7H570z"/>
		</g>
		<g>
			<path class="st3" d="M584.8,483.8v-37.5H610v7.7h-16.5v7h15.6v7.3h-15.6v7.8h17.4v7.7H584.8z"/>
		</g>
		<g>
			<path class="st3" d="M616.9,483.8v-37.5h25.2v7.7h-16.5v7h15.6v7.3h-15.6v7.8h17.4v7.7H616.9z"/>
		</g>
	</g>
</g>
</svg>
