<?xml version="1.0" encoding="utf-8"?>
<!-- Generator: Adobe Illustrator 23.0.0, SVG Export Plug-In . SVG Version: 6.00 Build 0)  -->
<svg version="1.1" id="Layer_1" xmlns="http://www.w3.org/2000/svg" xmlns:xlink="http://www.w3.org/1999/xlink" x="0px" y="0px"
	 viewBox="0 0 100 100" style="enable-background:new 0 0 100 100;" xml:space="preserve">
<style type="text/css">
	.st0{fill:#FFFFFF;}
	.st1{fill:#14677B;}
	.st2{fill:#E42127;}
</style>
<path class="st0" d="M94,100H6c-3.3,0-6-2.7-6-6V6c0-3.3,2.7-6,6-6h88c3.3,0,6,2.7,6,6v88C100,97.3,97.3,100,94,100z"/>
<g>
	<g>
		<path class="st1" d="M37.4,25.4c1.7,0,3.1-0.6,4.3-1.8s1.8-2.6,1.8-4.3c0-1.7-0.6-3.1-1.8-4.3s-2.6-1.8-4.3-1.8
			c-1.7,0-3.1,0.6-4.3,1.8s-1.8,2.6-1.8,4.3c0,1.7,0.6,3.1,1.8,4.3S35.7,25.4,37.4,25.4z"/>
		<path class="st1" d="M41.8,81.8c-5.3,0-9.8-1.9-13.5-5.6c-3.7-3.7-5.5-8.3-5.5-13.7c0-5.8,2.2-10.6,6.7-14.5l-0.4-6
			c-3.4,2.2-6.1,5.1-8.2,8.8c-2,3.6-3.1,7.6-3.1,11.8c0,6.8,2.3,12.6,7,17.3c4.7,4.7,10.3,7.1,16.9,7.1c4.7,0,9.1-1.5,13.1-4.4
			s7-6.6,8.9-11l-3.6-4.9c-0.9,4.4-3.1,8-6.5,10.9C50.2,80.3,46.3,81.8,41.8,81.8z"/>
		<path class="st1" d="M79.2,69.9h-3.1L63.8,53c-1.7-3-3.7-4.5-6.1-4.5H43.9v-6.1h12.3c2.2,0,3.3-0.8,3.3-2.3c0-1.5-1.1-2.3-3.3-2.3
			H43.9v-6.1c-0.2-3.1-2.2-4.6-6.1-4.5c-3.1,0.1-4.6,1.6-4.6,4.5V53c0.3,3.1,2.3,4.6,6.1,4.6h18.4l10.8,13.8l3,4.6h7.8
			c0.8,0,1.5-0.3,2.1-0.9c0.6-0.6,0.9-1.3,0.9-2.2c0-0.8-0.3-1.6-0.9-2.2C80.7,70.2,80,69.9,79.2,69.9z"/>
	</g>
</g>
<path class="st2" d="M79.1,74.1l8.7,8.7c1.1,1.1,1.1,2.8,0,3.8l-1.4,1.4c-1.1,1.1-2.8,1.1-3.8,0L60.1,65.6c-0.7-0.7-1.3-1.2-2.1-1.7
	c-0.1-0.1-0.3-0.2-0.4-0.3l-5.8-5.8c-1.1-1.1-2.8-1.1-3.8,0l-5.9,5.9c-0.1,0.1-0.2,0.2-0.4,0.3c-0.7,0.5-1.4,1.1-2.1,1.7L17.2,88.1
	c-1.1,1.1-2.8,1.1-3.8,0l-1.2-1.2c-1.1-1.1-1.1-2.8,0-3.8l9-9l0,0l22-22c1.1-1.1,1.1-2.8,0-3.8L12,17.1c-1.1-1.1-1.1-2.8,0-3.8
	l1.3-1.3c1.1-1.1,2.8-1.1,3.8,0L48,42.7c1.1,1.1,2.8,1.1,3.8,0l30.8-30.8c1.1-1.1,2.8-1.1,3.8,0l1.5,1.5c1.1,1.1,1.1,2.8,0,3.8
	L65.6,39.8c-0.2,0.2-0.4,0.4-0.6,0.7L57,48.3c-1.1,1.1-1.1,2.8,0,3.8L79.1,74.1L79.1,74.1z"/>
</svg>
