<?xml version="1.0" encoding="utf-8"?>
<!-- Generator: Adobe Illustrator 23.0.0, SVG Export Plug-In . SVG Version: 6.00 Build 0)  -->
<svg version="1.1" id="Layer_1" xmlns="http://www.w3.org/2000/svg" xmlns:xlink="http://www.w3.org/1999/xlink" x="0px" y="0px"
	 viewBox="0 0 100 100" style="enable-background:new 0 0 100 100;" xml:space="preserve">
<style type="text/css">
	.st0{fill:#FFFFFF;}
	.st1{fill:#14677B;}
</style>
<g>
	<path class="st0" d="M94,100H6.2c-3.3,0-6-2.7-6-6V5.8c0-3.3,2.7-6,6-6H94c3.3,0,6,2.7,6,6V94C100,97.3,97.3,100,94,100z"/>
	<g>
		<g>
			<path class="st1" d="M37.6,25.2c1.7,0,3.1-0.6,4.3-1.8s1.8-2.7,1.8-4.4s-0.6-3.2-1.8-4.4s-2.6-1.8-4.3-1.8
				c-1.7,0-3.1,0.6-4.3,1.8s-1.8,2.7-1.8,4.4s0.6,3.2,1.8,4.4S35.9,25.2,37.6,25.2z"/>
			<path class="st1" d="M41.9,81.7c-5.3,0-9.8-1.9-13.4-5.6c-3.7-3.8-5.5-8.3-5.5-13.7c0-5.8,2.2-10.7,6.7-14.6l-0.4-6
				c-3.4,2.2-6.1,5.1-8.1,8.8c-2,3.7-3.1,7.6-3.1,11.8c0,6.8,2.3,12.6,7,17.3s10.3,7.1,16.9,7.1c4.7,0,9-1.5,13.1-4.4
				c4-3,7-6.6,8.9-11l-3.6-5c-0.9,4.4-3.1,8.1-6.5,11S46.4,81.7,41.9,81.7z"/>
			<path class="st1" d="M79.3,69.8h-3.1l-12.3-17c-1.7-3-3.7-4.5-6.1-4.5H44v-6.2h12.3c2.2,0,3.3-0.8,3.3-2.3s-1.1-2.3-3.3-2.3H44
				v-6.2c-0.2-3.1-2.2-4.6-6.1-4.5c-3.1,0.1-4.6,1.6-4.6,4.5v21.5c0.3,3.1,2.3,4.7,6.1,4.7h18.4l10.8,13.8l3,4.7h7.8
				c0.8,0,1.5-0.3,2.1-0.9c0.6-0.6,0.9-1.3,0.9-2.2s-0.3-1.6-0.9-2.2C80.8,70.1,80.1,69.8,79.3,69.8z"/>
		</g>
	</g>
</g>
</svg>
